<svg viewBox="0 0 18 16" xmlns="http://www.w3.org/2000/svg"><g fill="#ed1c24" fill-rule="evenodd" transform="matrix(1 0 0 -1 0 15.180468)"><path d="m0 7.621875c0-4.15546875.028125-7.55859375.06328125-7.55859375.04921875 0 6.33515625 14.94140625 6.33515625 15.06796875 0 .028125-1.44140625.0492187-3.19921875.0492187h-3.19921875z"/><path d="m10.828125 15.1382812c0-.0210937.8578125-2.08125 1.9054688-4.584375 1.0476562-2.50312495 1.9125-4.5773437 1.9195312-4.6195312.0140625-.03515625.0984375-.24609375.1898438-.45703125.0984374-.2109375.6468749-1.51875 1.2234374-2.896875.5765626-1.38515625 1.0757813-2.5171875 1.1039063-2.5171875s.05625 3.403125.05625 7.55859375v7.5585937h-3.1992187c-1.7578126 0-3.1992188-.0210937-3.1992188-.0421875z"/><path d="m8.13515625 8.55703125c-1.5609375-3.66328125-2.29921875-5.4140625-2.29921875-5.4703125 0-.0421875.61171875-.07734375 1.48359375-.084375l1.48359375-.02109375.58359375-1.4765625.5765625-1.4765625 1.34999995-.02109375c.9-.0140625 1.3429688.00703125 1.3429688.05625 0 .09140625-3.9375 9.4359375-4.0078125 9.51328125-.028125.03515625-.26015625-.42890625-.51328125-1.01953125z"/></g></svg>